<?xml version="1.0" encoding="iso-8859-1"?>
<!-- Generator: Adobe Illustrator 19.0.0, SVG Export Plug-In . SVG Version: 6.00 Build 0)  -->
<svg version="1.1" id="Capa_1" xmlns="http://www.w3.org/2000/svg" xmlns:xlink="http://www.w3.org/1999/xlink" x="0px" y="0px"
	 viewBox="0 0 488.16 488.16" style="enable-background:new 0 0 488.16 488.16;" xml:space="preserve">
<g>
	<g>
		<path d="M486.213,169.471L486.213,169.471c-1.745-2.026-4.386-3.047-7.04-2.72l-6.56,0.88c-25.321,4.089-51.171,3.601-76.32-1.44
			c-13.254-2.617-26.977-1.453-39.6,3.36c-1.479-2.771-3.135-5.443-4.96-8c-12.793-17.329-32.794-27.874-54.32-28.64
			c-21.412-0.803-41.639,9.828-53.12,27.92c-11.514-17.987-31.7-28.522-53.04-27.68c-21.526,0.766-41.527,11.311-54.32,28.64
			c-1.825,2.557-3.482,5.229-4.96,8c-12.745-4.889-26.618-6.055-40-3.36c-25.175,5.051-51.053,5.539-76.4,1.44l-6.56-0.88
			c-4.383-0.559-8.389,2.54-8.948,6.923c-0.135,1.057-0.057,2.13,0.228,3.157c8.443,24.231,28.134,42.848,52.8,49.92l5.36,1.52
			c1.776,12.565,8.234,23.995,18.08,32c2.729,1.932,5.719,3.468,8.88,4.56c7.657,11.699,19.137,20.38,32.48,24.56
			c4.555,1.285,9.267,1.931,14,1.92c12.409-0.358,24.5-4.002,35.04-10.56c4.4,4.24,8.88,8.4,13.44,12.64
			c7.92,7.04,15.92,14.56,22.96,21.76c19.68,20.32,34.96,37.12,35.04,37.28c2.972,3.27,8.031,3.511,11.301,0.539
			c0.188-0.171,0.368-0.351,0.539-0.539c0,0,15.36-16.96,35.04-37.28c7.04-7.2,15.04-14.72,23.04-21.76
			c4.56-4.24,9.04-8.48,13.44-12.64c10.388,6.505,22.311,10.148,34.56,10.56c4.76,0.016,9.498-0.631,14.08-1.92
			c13.343-4.18,24.823-12.861,32.48-24.56c3.151-1.199,6.114-2.842,8.8-4.88c9.846-8.005,16.304-19.435,18.08-32l5.36-1.52
			c24.666-7.072,44.357-25.689,52.8-49.92C488.57,174.196,487.941,171.472,486.213,169.471z M122.773,274.272L122.773,274.272
			c-5.318-1.603-10.229-4.331-14.4-8c2.454-0.4,4.884-0.934,7.28-1.6c4.306-0.991,6.993-5.285,6.001-9.591s-5.285-6.993-9.591-6.001
			c-0.274,0.063-0.545,0.141-0.81,0.232c-8.17,3.247-17.382,2.538-24.96-1.92c-5.086-4.071-8.709-9.688-10.32-16
			c3.84,0.4,8,0.72,11.84,0.8c4.418,0,8-3.582,8-8s-3.582-8-8-8c-10.071-0.115-20.07-1.706-29.68-4.72
			c-14.888-4.503-27.752-14.032-36.4-26.96c24.381,3.113,49.107,2.222,73.2-2.64c10.195-1.988,20.74-1.13,30.48,2.48
			c-3.309,11.2-3.53,23.085-0.64,34.4c5.684,19.088,16.148,36.409,30.4,50.32C145.419,274.84,133.842,276.698,122.773,274.272z
			 M297.013,281.952l0,0.32c-8,7.12-16,14.56-23.2,22.32c-12.48,12.88-23.2,24.4-29.52,31.2c-6.32-6.8-17.04-18.32-29.52-31.2
			c-7.52-8-15.52-15.2-23.2-22.32c-22.72-21.12-44.24-41.04-51.04-67.12c-3.711-15.125-0.324-31.117,9.2-43.44
			c9.899-13.445,25.395-21.635,42.08-22.24h1.84c32,0,42.56,30.56,43.04,32c1.38,4.197,5.901,6.482,10.098,5.102
			c2.415-0.794,4.308-2.687,5.102-5.102c0,0,10.64-32,43.04-32h1.84c16.685,0.605,32.181,8.795,42.08,22.24
			c9.486,12.185,12.955,28.004,9.44,43.04C341.253,240.832,319.733,260.832,297.013,281.952z M430.133,211.552l0,0.32
			c-9.609,3.015-19.609,4.606-29.68,4.72c-4.418,0-8,3.582-8,8s3.582,8,8,8c4.08,0,8-0.4,11.76-0.8
			c-1.595,6.299-5.188,11.913-10.24,16c-7.599,4.484-16.846,5.193-25.04,1.92c-4.177-1.439-8.73,0.781-10.169,4.959
			s0.781,8.73,4.959,10.169c0.266,0.092,0.536,0.169,0.811,0.232c2.396,0.666,4.826,1.2,7.28,1.6c-4.169,3.671-9.081,6.399-14.4,8
			c-11.185,2.573-22.931,0.74-32.8-5.12c14.279-13.905,24.77-31.225,30.48-50.32c2.89-11.315,2.669-23.201-0.64-34.4
			c9.74-3.606,20.285-4.464,30.48-2.48c24.092,4.869,48.819,5.761,73.2,2.64C457.509,197.688,444.808,207.058,430.133,211.552z"/>
	</g>
</g>
<g>
	<g>
		<path d="M336.056,204.231c-0.001-0.013-0.002-0.026-0.003-0.039c-0.106-12.584-5.684-24.499-15.28-32.64
			c-10.448-7.393-23.327-10.513-36-8.72c-4.418,0.685-7.445,4.822-6.76,9.24s4.822,7.445,9.24,6.76c8.408-1.208,16.965,0.76,24,5.52
			c5.938,5.406,9.285,13.09,9.2,21.12c0.356,3.986,3.602,7.096,7.6,7.28h0.56C333.021,212.454,336.353,208.639,336.056,204.231z"/>
	</g>
</g>
<g>
</g>
<g>
</g>
<g>
</g>
<g>
</g>
<g>
</g>
<g>
</g>
<g>
</g>
<g>
</g>
<g>
</g>
<g>
</g>
<g>
</g>
<g>
</g>
<g>
</g>
<g>
</g>
<g>
</g>
</svg>
