<svg height="512pt" viewBox="0 0 512 512" width="512pt" xmlns="http://www.w3.org/2000/svg"><path d="m477 224h-85v-188.917969c0-19.34375-15.738281-35.082031-35.082031-35.082031h-201.835938c-19.34375 0-35.082031 15.738281-35.082031 35.082031v188.917969h-85c-19.300781 0-35 15.699219-35 35v228c0 13.785156 11.214844 25 25 25h462c13.785156 0 25-11.214844 25-25v-228c0-19.300781-15.699219-35-35-35zm-447 35c0-2.757812 2.242188-5 5-5h85v228h-90zm120-223.917969c0-2.800781 2.28125-5.082031 5.082031-5.082031h201.835938c2.800781 0 5.082031 2.28125 5.082031 5.082031v446.917969h-41v-105c0-19.300781-15.699219-35-35-35h-60c-19.300781 0-35 15.699219-35 35v105h-41zm71 446.917969v-105c0-2.757812 2.242188-5 5-5h60c2.757812 0 5 2.242188 5 5v105zm261 0h-90v-228h85c2.757812 0 5 2.242188 5 5zm0 0"/><path d="m75 284c-8.285156 0-15 6.714844-15 15v76c0 8.285156 6.714844 15 15 15s15-6.714844 15-15v-76c0-8.285156-6.714844-15-15-15zm0 0"/><path d="m195 166c8.285156 0 15-6.714844 15-15v-76c0-8.285156-6.714844-15-15-15s-15 6.714844-15 15v76c0 8.285156 6.714844 15 15 15zm0 0"/><path d="m256 166c8.285156 0 15-6.714844 15-15v-76c0-8.285156-6.714844-15-15-15s-15 6.714844-15 15v76c0 8.285156 6.714844 15 15 15zm0 0"/><path d="m317 166c8.285156 0 15-6.714844 15-15v-76c0-8.285156-6.714844-15-15-15s-15 6.714844-15 15v76c0 8.285156 6.714844 15 15 15zm0 0"/><path d="m195 312c8.285156 0 15-6.714844 15-15v-76c0-8.285156-6.714844-15-15-15s-15 6.714844-15 15v76c0 8.285156 6.714844 15 15 15zm0 0"/><path d="m256 312c8.285156 0 15-6.714844 15-15v-76c0-8.285156-6.714844-15-15-15s-15 6.714844-15 15v76c0 8.285156 6.714844 15 15 15zm0 0"/><path d="m317 312c8.285156 0 15-6.714844 15-15v-76c0-8.285156-6.714844-15-15-15s-15 6.714844-15 15v76c0 8.285156 6.714844 15 15 15zm0 0"/><path d="m437 284c-8.285156 0-15 6.714844-15 15v76c0 8.285156 6.714844 15 15 15s15-6.714844 15-15v-76c0-8.285156-6.714844-15-15-15zm0 0"/></svg>